<svg width="200" height="200" viewBox="0 0 200 200" fill="none" xmlns="http://www.w3.org/2000/svg">
  <!-- Code brackets -->
  <path d="M60 90L50 100L60 110" stroke="#8046A8" stroke-width="5" stroke-linecap="round" stroke-linejoin="round"/>
  <path d="M140 90L150 100L140 110" stroke="#8046A8" stroke-width="5" stroke-linecap="round" stroke-linejoin="round"/>
  
  <!-- CC letters -->
  <path d="M85 115C79 115 74 113 70 109C66 105 64 100 64 94C64 88 66 83 70 79C74 75 79 73 85 73C89 73 93 74 96 76C99 78 101 81 103 84L95 88C94 86 93 85 91 84C89 83 87 82 85 82C81 82 78 83 76 86C74 88 73 91 73 94C73 97 74 100 76 102C78 105 81 106 85 106C87 106 89 105 91 104C93 103 94 102 95 100L103 104C101 107 99 110 96 112C93 114 89 115 85 115Z" fill="#333333"/>
  <path d="M115 115C109 115 104 113 100 109C96 105 94 100 94 94C94 88 96 83 100 79C104 75 109 73 115 73C119 73 123 74 126 76C129 78 131 81 133 84L125 88C124 86 123 85 121 84C119 83 117 82 115 82C111 82 108 83 106 86C104 88 103 91 103 94C103 97 104 100 106 102C108 105 111 106 115 106C117 106 119 105 121 104C123 103 124 102 125 100L133 104C131 107 129 110 126 112C123 114 119 115 115 115Z" fill="#333333"/>
</svg>
